<svg xmlns="http://www.w3.org/2000/svg" version="1.1" xmlns:xlink="http://www.w3.org/1999/xlink" xmlns:svgjs="http://svgjs.dev/svgjs" width="100%" height="100%"><g><g><circle r="322" cx="668.703125" cy="463.5" stroke-width="52" stroke="white" fill="white"></circle></g><circle r="296" cx="668.703125" cy="463.5" stroke-width="2" stroke="black" fill="white"></circle><circle r="348" cx="668.703125" cy="463.5" stroke-width="2" stroke="black" fill="transparent"></circle><text x="668.703125" y="463.5"><textPath xlink:href="#SvgjsPath1712" fill="black" font-family="Dungeon" font-size="42" textLength="1894.3803701146453"><tspan dy="0" x="0">dragon board bard dungeon enemy runes enemy bard bard magic  enemy rune bard board allay rune board glyph glyph</tspan></textPath></text><path d="M367.203125 463.5A301.5 301.5 0 1 1 970.203125 463.5A301.5 301.5 0 1 1 367.203125 463.5 " id="SvgjsPath1712" fill="transparent"></path><g><line x1="668.703125" y1="463.5" x2="668.703125" y2="167.5" stroke-width="2" stroke="black"></line><line x1="668.703125" y1="463.50000310524155" x2="878.006732231218" y2="254.19639587402344" stroke-width="2" stroke="black"></line><line x1="668.703125" y1="463.5" x2="964.703125" y2="463.49999999999994" stroke-width="2" stroke="black"></line><line x1="668.703125" y1="463.5" x2="878.0067322312182" y2="672.803607231218" stroke-width="2" stroke="black"></line><line x1="668.703125" y1="463.5" x2="668.7031250000001" y2="759.5" stroke-width="2" stroke="black"></line><line x1="668.7031281052413" y1="463.5" x2="459.39952087402344" y2="672.8036072312183" stroke-width="2" stroke="black"></line><line x1="668.703125" y1="463.5" x2="372.703125" y2="463.5000000000001" stroke-width="2" stroke="black"></line><line x1="668.7031281052414" y1="463.5000031052416" x2="459.39952087402344" y2="254.19639587402344" stroke-width="2" stroke="black"></line></g><g transform="matrix(1,0,0,1,0,0)"><line x1="668.703125" y1="167.5" x2="964.703125" y2="463.49999999999994" stroke-width="2" stroke="black"></line><line x1="964.703125" y1="463.49999999999994" x2="668.7031250000001" y2="759.5" stroke-width="2" stroke="black"></line><line x1="668.7031250000001" y1="759.5" x2="372.703125" y2="463.5000000000001" stroke-width="2" stroke="black"></line><line x1="372.703125" y1="463.5000000000001" x2="668.703125" y2="167.5" stroke-width="2" stroke="black"></line></g><circle r="33" cx="668.703125" cy="201.5" stroke-width="2" stroke="black" fill="white"></circle><text font-size="33" font-weight="bold" x="663.2031249999998" y="213.00000000000028" fill="black" transform="matrix(1,-4.440892098500626e-16,4.440892098500626e-16,1,1.2967404927621828e-13,0)"><tspan dy="0" x="663.2031249999998">ᛙ</tspan></text><circle r="33" cx="853.9651031494141" cy="278.23802185058594" stroke-width="2" stroke="black" fill="white"></circle><text font-size="33" font-weight="bold" x="975.8504840389758" y="-318.86249787904603" fill="black" transform="matrix(0.7071067811865477,0.7071067811865474,-0.7071067811865474,0.7071067811865477,-77.0308982785806,-184.5548700195283)"><tspan dy="0" x="975.8504840389758">ᛰ</tspan></text><circle r="33" cx="930.703125" cy="463.5" stroke-width="2" stroke="black" fill="white"></circle><text font-size="33" font-weight="bold" x="715.2734375000002" y="-657.203125" fill="black" transform="matrix(3.061616997868383e-16,1,-1,3.061616997868383e-16,261.99999999999994,-262)"><tspan dy="0" x="715.2734375000002">ᚥ</tspan></text><circle r="33" cx="853.9651031494141" cy="648.7619781494141" stroke-width="2" stroke="black" fill="white"></circle><text font-size="33" font-weight="bold" x="30.161455462704993" y="-603.826530697225" fill="black" transform="matrix(-0.7071067811865472,0.7071067811865478,-0.7071067811865478,-0.7071067811865472,443.8477653293112,186.67621059357518)"><tspan dy="0" x="30.161455462704993">ᛤ</tspan></text><circle r="33" cx="668.703125" cy="725.5" stroke-width="2" stroke="black" fill="white"></circle><text font-size="33" font-weight="bold" x="-678.2031249999998" y="-190.00000000000023" fill="black" transform="matrix(-1,3.4450928483976665e-16,-3.4450928483976665e-16,-1,7.288629192963834e-14,524)"><tspan dy="0" x="-678.2031249999998">ᛘ</tspan></text><circle r="33" cx="483.44114685058594" cy="648.7619781494141" stroke-width="2" stroke="black" fill="white"></circle><text font-size="33" font-weight="bold" x="-996.3582965389755" y="341.8624978790456" fill="black" transform="matrix(-0.7071067811865482,-0.7071067811865468,0.7071067811865468,-0.7071067811865482,-447.2619991221715,185.2619768007152)"><tspan dy="0" x="-996.3582965389755">ᛥ</tspan></text><circle r="33" cx="406.703125" cy="463.5" stroke-width="2" stroke="black" fill="white"></circle><text font-size="33" font-weight="bold" x="-733.5000000000005" y="680.2031249999998" fill="black" transform="matrix(-6.277862297221656e-16,-1,1,-6.277862297221656e-16,-262.00000000000017,-262)"><tspan dy="0" x="-733.5000000000005">ᚧ</tspan></text><circle r="33" cx="483.44114685058594" cy="278.23802185058594" stroke-width="2" stroke="black" fill="white"></circle><text font-size="33" font-weight="bold" x="-49.16145546270414" y="626.8265306972246" fill="black" transform="matrix(0.7071067811865479,-0.7071067811865471,0.7071067811865471,0.7071067811865479,76.73802529025443,-185.2619970312021)"><tspan dy="0" x="-49.16145546270414">ᛔ</tspan></text></g><defs></defs><g><g><circle r="122.5" cx="668.703125" cy="463.5" stroke-width="45" stroke="white" fill="white"></circle></g><circle r="100" cx="668.703125" cy="463.5" stroke-width="2" stroke="black" fill="white"></circle><circle r="145" cx="668.703125" cy="463.5" stroke-width="2" stroke="black" fill="transparent"></circle><text x="668.703125" y="463.5"><textPath xlink:href="#SvgjsPath1713" fill="black" font-family="Dungeon" font-size="15" textLength="788.5397560510381"><tspan dy="0" x="0"></tspan></textPath></text><path d="M543.203125 463.5A125.5 125.5 0 1 1 794.203125 463.5A125.5 125.5 0 1 1 543.203125 463.5 " id="SvgjsPath1713" fill="transparent"></path><g><line x1="668.703125" y1="363.5" x2="727.4816502292473" y2="544.4016994374947" stroke-width="2" stroke="black"></line><line x1="668.703123923095" y1="363.5" x2="609.9245986938477" y2="544.4016994374947" stroke-width="2" stroke="black"></line><line x1="763.8087755526103" y1="432.5983009338379" x2="609.9245986938477" y2="544.4016998088274" stroke-width="2" stroke="black"></line><line x1="763.808776403562" y1="432.5983009338379" x2="573.5974731445312" y2="432.59830093383795" stroke-width="2" stroke="black"></line><line x1="727.4816500032939" y1="544.4016998088273" x2="573.5974731445312" y2="432.5983009338379" stroke-width="2" stroke="black"></line></g><text font-size="54" font-weight="bold" x="658.2031249999998" y="480.5000000000003" fill="black" transform="matrix(1,-4.440892098500626e-16,4.440892098500626e-16,1,1.0106430996148606e-15,0)"><tspan dy="0" x="658.2031249999998">ᛑ</tspan></text></g><g><g><circle r="122.5" cx="970.0799655169848" cy="637.4999999999998" stroke-width="49" stroke="white" fill="white"></circle></g><circle r="98" cx="970.0799655169848" cy="637.4999999999998" stroke-width="2" stroke="black" fill="white"></circle><circle r="147" cx="970.0799655169848" cy="637.4999999999998" stroke-width="2" stroke="black" fill="transparent"></circle><text x="970.0799655169848" y="637.4999999999998"><textPath xlink:href="#SvgjsPath1714" fill="black" font-family="Dungeon" font-size="18" textLength="788.5397560510381"><tspan dy="0" x="0"></tspan></textPath></text><path d="M844.5799655169848 637.4999999999998A125.5 125.5 0 1 1 1095.5799655169849 637.4999999999998A125.5 125.5 0 1 1 844.5799655169848 637.4999999999998 " id="SvgjsPath1714" fill="transparent"></path><g><line x1="970.0799655169848" y1="637.4999999999998" x2="970.0799655169848" y2="539.4999999999998" stroke-width="2" stroke="black"></line><line x1="970.0799655169848" y1="637.5000007453755" x2="1063.2835041139099" y2="607.2163352966306" stroke-width="2" stroke="black"></line><line x1="970.0799655169848" y1="637.4999999999998" x2="1027.6829202416473" y2="716.7836654487446" stroke-width="2" stroke="black"></line><line x1="970.0799653771452" y1="637.4999999999998" x2="912.4770106524828" y2="716.7836654487446" stroke-width="2" stroke="black"></line><line x1="970.0799671266052" y1="637.5000007453755" x2="876.8764285296802" y2="607.2163352966306" stroke-width="2" stroke="black"></line></g><circle r="37" cx="970.0799655169848" cy="528.4999999999998" stroke-width="2" stroke="black" fill="white"></circle><text font-size="44" font-weight="bold" x="958.5799655169845" y="544.0000000000002" fill="black" transform="matrix(1,-4.440892098500626e-16,4.440892098500626e-16,1,4.929390229335695e-14,0)"><tspan dy="0" x="958.5799655169845">ᛟ</tspan></text><circle r="37" cx="1040.143815919817" cy="554.001152038574" stroke-width="2" stroke="black" fill="white"></circle><text font-size="44" font-weight="bold" x="1210.4653175963376" y="-203.20089405108314" fill="black" transform="matrix(0.7660444431189781,0.6427876096865391,-0.6427876096865391,0.7660444431189781,-37.28019775448145,-64.57119439961082)"><tspan dy="0" x="1210.4653175963376">ᛢ</tspan></text><circle r="37" cx="1077.4240130633716" cy="618.5723495483396" stroke-width="2" stroke="black" fill="white"></circle><text font-size="44" font-weight="bold" x="895.3694183268362" y="-848.0692091859694" fill="black" transform="matrix(0.17364817766693044,0.984807753012208,-0.984807753012208,0.17364817766693044,70.06385239546438,-121.35414870660544)"><tspan dy="0" x="895.3694183268362">ᛐ</tspan></text><circle r="37" cx="1064.4767321795825" cy="691.9999999999998" stroke-width="2" stroke="black" fill="white"></circle><text font-size="44" font-weight="bold" x="152.44798116659183" y="-1088.8638938400409" fill="black" transform="matrix(-0.49999999999999933,0.866025403784439,-0.866025403784439,-0.49999999999999933,188.79353450014835,0.0000020350783600520117)"><tspan dy="0" x="152.44798116659183">ᛑ</tspan></text><circle r="37" cx="1007.3601626605395" cy="739.9264984130857" stroke-width="2" stroke="black" fill="white"></circle><text font-size="44" font-weight="bold" x="-666.8214481759472" y="-812.9144389288316" fill="black" transform="matrix(-0.9396926207859083,0.3420201433256689,-0.3420201433256689,-0.9396926207859083,107.34404711855194,185.9253451007304)"><tspan dy="0" x="-666.8214481759472">ᛇ</tspan></text><circle r="37" cx="932.7997683734301" cy="739.9264984130857" stroke-width="2" stroke="black" fill="white"></circle><text font-size="44" font-weight="bold" x="-1177.4575221611703" y="-149.34066124187427" fill="black" transform="matrix(-0.9396926207859086,-0.34202014332566805,0.34202014332566805,-0.9396926207859086,-107.34404896838691,185.92534477455465)"><tspan dy="0" x="-1177.4575221611703">ᚾ</tspan></text><circle r="37" cx="875.6832064837816" cy="691.9999999999998" stroke-width="2" stroke="black" fill="white"></circle><text font-size="44" font-weight="bold" x="-1144.0279466835755" y="591.3638938400416" fill="black" transform="matrix(-0.4999999999999996,-0.8660254037844389,0.8660254037844389,-0.4999999999999996,-188.79353450014838,0.0000020350783742628664)"><tspan dy="0" x="-1144.0279466835755">ᛯ</tspan></text><circle r="37" cx="862.7359103412035" cy="618.5723495483396" stroke-width="2" stroke="black" fill="white"></circle><text font-size="44" font-weight="bold" x="-577.2688694203907" y="1062.6153329799145" fill="black" transform="matrix(0.17364817766692978,-0.9848077530122081,0.9848077530122081,0.17364817766692978,-70.06385239546447,-121.35414870660547)"><tspan dy="0" x="-577.2688694203907">ᛀ</tspan></text><circle r="37" cx="900.0161151141527" cy="554.001152038574" stroke-width="2" stroke="black" fill="white"></circle><text font-size="44" font-weight="bold" x="250.78341633433297" y="1043.9098704278435" fill="black" transform="matrix(0.7660444431189772,-0.6427876096865404,0.6427876096865404,0.7660444431189772,37.28019775448149,-64.57119439961097)"><tspan dy="0" x="250.78341633433297">ᛠ</tspan></text></g><g><g><circle r="114.5" cx="367.3262844830153" cy="637.4999999999999" stroke-width="43" stroke="white" fill="white"></circle></g><circle r="93" cx="367.3262844830153" cy="637.4999999999999" stroke-width="2" stroke="black" fill="white"></circle><circle r="136" cx="367.3262844830153" cy="637.4999999999999" stroke-width="2" stroke="black" fill="transparent"></circle><text x="367.3262844830153" y="637.4999999999999"><textPath xlink:href="#SvgjsPath1715" fill="black" font-family="Dungeon" font-size="14" textLength="688.0087911361647"><tspan dy="0" x="0">monster enemy glyph monster rune bard dnd goblin enemy human dragon dungeon wizzard goblin rune enemy dragon allay allay spell dragon</tspan></textPath></text><path d="M257.8262844830153 637.4999999999999A109.5 109.5 0 1 1 476.8262844830153 637.4999999999999A109.5 109.5 0 1 1 257.8262844830153 637.4999999999999 " id="SvgjsPath1715" fill="transparent"></path><text font-size="32" font-weight="bold" x="358.826284483015" y="576.5" fill="black" transform="matrix(1,-4.440892098500626e-16,4.440892098500626e-16,1,3.2862601528904634e-14,0)"><tspan dy="0" x="358.826284483015">ᛟ</tspan></text><text font-size="32" font-weight="bold" x="663.8638938400409" y="317.0742235985923" fill="black" transform="matrix(0.8660254037844386,0.5000000000000001,-0.5000000000000001,0.8660254037844386,-26.353828751327683,-26.353828986427196)"><tspan dy="0" x="663.8638938400409">ᚱ</tspan></text><text font-size="32" font-weight="bold" x="788.6081662265668" y="-24.363893840040618" fill="black" transform="matrix(0.5000000000000004,0.8660254037844384,-0.8660254037844384,0.5000000000000004,-0.5000003211519157,-71.13397403996412)"><tspan dy="0" x="788.6081662265668">ᚶ</tspan></text><text font-size="32" font-weight="bold" x="700.5" y="-356.32628448301506" fill="black" transform="matrix(3.061616997868383e-16,1,-1,3.061616997868383e-16,71.99999999999997,-72)"><tspan dy="0" x="700.5">ᚩ</tspan></text><text font-size="32" font-weight="bold" x="420.59438174355205" y="-589.8638938400405" fill="black" transform="matrix(-0.49999999999999933,0.866025403784439,-0.866025403784439,-0.49999999999999933,124.70765718150344,5.562513578638573e-7)"><tspan dy="0" x="420.59438174355205">ᛗ</tspan></text><text font-size="32" font-weight="bold" x="29.13610615995951" y="-662.4005080816077" fill="black" transform="matrix(-0.8660254037844384,0.5000000000000004,-0.5000000000000004,-0.8660254037844384,98.35382875132768,98.35382787392433)"><tspan dy="0" x="29.13610615995951">ᚳ</tspan></text><text font-size="32" font-weight="bold" x="-375.82628448301506" y="-554.5" fill="black" transform="matrix(-1,3.4450928483976665e-16,-3.4450928483976665e-16,-1,-1.9999999999999813,144)"><tspan dy="0" x="-375.82628448301506">ᚬ</tspan></text><text font-size="32" font-weight="bold" x="-681.3638938400406" y="-295.07422359859277" fill="black" transform="matrix(-0.866025403784439,-0.4999999999999994,0.4999999999999994,-0.866025403784439,-100.2198541551121,97.85382787392442)"><tspan dy="0" x="-681.3638938400406">ᛀ</tspan></text><text font-size="32" font-weight="bold" x="-804.6081662265667" y="46.36389384004126" fill="black" transform="matrix(-0.4999999999999996,-0.8660254037844389,0.8660254037844389,-0.4999999999999996,-124.70765718150345,5.562513862855667e-7)"><tspan dy="0" x="-804.6081662265667">ᚭ</tspan></text><text font-size="32" font-weight="bold" x="-719.0000000000001" y="378.3262844830149" fill="black" transform="matrix(-6.277862297221656e-16,-1,1,-6.277862297221656e-16,-74.00000000000004,-74)"><tspan dy="0" x="-719.0000000000001">ᛤ</tspan></text><text font-size="32" font-weight="bold" x="-437.78188174355216" y="611.8638938400404" fill="black" transform="matrix(0.4999999999999991,-0.8660254037844392,0.8660254037844392,0.4999999999999991,-0.4999996788481269,-72.86602484753311)"><tspan dy="0" x="-437.78188174355216">ᛛ</tspan></text><text font-size="32" font-weight="bold" x="-45.136106159960704" y="684.4005080816078" fill="black" transform="matrix(0.8660254037844376,-0.5000000000000018,0.5000000000000018,0.8660254037844376,26.219854155112188,-26.853828986427324)"><tspan dy="0" x="-45.136106159960704">ᚰ</tspan></text></g><g><g><circle r="84" cx="668.7031249999999" cy="115.5" stroke-width="78" stroke="white" fill="white"></circle></g><circle r="45" cx="668.7031249999999" cy="115.5" stroke-width="2" stroke="black" fill="white"></circle><circle r="123" cx="668.7031249999999" cy="115.5" stroke-width="2" stroke="black" fill="transparent"></circle><text x="668.7031249999999" y="115.5"><textPath xlink:href="#SvgjsPath1716" fill="black" font-family="Dungeon" font-size="17" textLength="486.94686130641793"><tspan dy="0" x="0">monster allay human spell allay magic dnd wizzard glyph wizzard spell board human dnd dungeon dnd</tspan></textPath></text><path d="M591.2031249999999 115.5A77.5 77.5 0 1 1 746.2031249999999 115.5A77.5 77.5 0 1 1 591.2031249999999 115.5 " id="SvgjsPath1716" fill="transparent"></path><g transform="matrix(1,0,0,1,0,0)"><line x1="668.7031249999999" y1="70.5" x2="707.6742681702996" y2="92.99999999999997" stroke-width="2" stroke="black"></line><line x1="707.6742668151854" y1="93" x2="707.6742668151855" y2="138" stroke-width="2" stroke="black"></line><line x1="707.6742681702997" y1="138" x2="668.7031249999999" y2="160.50000000000003" stroke-width="2" stroke="black"></line><line x1="668.7031263551141" y1="160.5" x2="629.7319831848143" y2="138" stroke-width="2" stroke="black"></line><line x1="629.7319831848143" y1="137.99999999999994" x2="629.7319831848143" y2="93" stroke-width="2" stroke="black"></line><line x1="629.7319831848143" y1="93.00000000000004" x2="668.7031263551141" y2="70.5" stroke-width="2" stroke="black"></line></g><g transform="matrix(0.8660254037844387,0.49999999999999994,-0.49999999999999994,0.8660254037844387,0,0)"><line x1="636.8638938400409" y1="-273.29677017808274" x2="670.6138938400409" y2="-253.8111985929329" stroke-width="2" stroke="black"></line><line x1="670.6138938400409" y1="-253.81119927048996" x2="670.6138938400409" y2="-214.84005610019022" stroke-width="2" stroke="black"></line><line x1="670.6138938400409" y1="-214.84005745530442" x2="636.8638938400409" y2="-195.35448587015452" stroke-width="2" stroke="black"></line><line x1="636.8638938400409" y1="-195.35448587015455" x2="603.1138938400409" y2="-214.84005745530442" stroke-width="2" stroke="black"></line><line x1="603.1138938400409" y1="-214.84005610019025" x2="603.1138938400409" y2="-253.81119927048996" stroke-width="2" stroke="black"></line><line x1="603.1138938400409" y1="-253.81119859293284" x2="636.8638938400409" y2="-273.29677017808274" stroke-width="2" stroke="black"></line></g><g transform="matrix(0.5000000000000001,0.8660254037844386,-0.8660254037844386,0.5000000000000001,0,0)"><line x1="434.37749663710264" y1="-555.1138938400409" x2="463.60585401482746" y2="-538.2388938400409" stroke-width="2" stroke="black"></line><line x1="463.6058539521661" y1="-538.2388938400409" x2="463.6058539521661" y2="-504.4888938400409" stroke-width="2" stroke="black"></line><line x1="463.60585401482746" y1="-504.4888938400409" x2="434.37749663710264" y2="-487.6138938400409" stroke-width="2" stroke="black"></line><line x1="434.377496699764" y1="-487.6138938400409" x2="405.14913932203916" y2="-504.4888938400409" stroke-width="2" stroke="black"></line><line x1="405.14913932203916" y1="-504.4888938400409" x2="405.14913932203916" y2="-538.2388938400409" stroke-width="2" stroke="black"></line><line x1="405.14913932203916" y1="-538.2388938400409" x2="434.377496699764" y2="-555.1138938400409" stroke-width="2" stroke="black"></line></g><g transform="matrix(6.123233995736766e-17,1,-1,6.123233995736766e-17,0,0)"><line x1="115.50000000000004" y1="-697.9314823150634" x2="140.81250000000003" y2="-683.317303626201" stroke-width="2" stroke="black"></line><line x1="140.81250000000006" y1="-683.3173036575316" x2="140.81250000000006" y2="-654.0889462798068" stroke-width="2" stroke="black"></line><line x1="140.81250000000006" y1="-654.0889463424681" x2="115.50000000000006" y2="-639.4747676536057" stroke-width="2" stroke="black"></line><line x1="115.50000000000007" y1="-639.4747676536057" x2="90.18750000000006" y2="-654.0889463424681" stroke-width="2" stroke="black"></line><line x1="90.18750000000006" y1="-654.0889462798069" x2="90.18750000000004" y2="-683.3173036575316" stroke-width="2" stroke="black"></line><line x1="90.18750000000004" y1="-683.3173036262009" x2="115.50000000000006" y2="-697.9314823150634" stroke-width="2" stroke="black"></line></g><g transform="matrix(-0.4999999999999998,0.8660254037844387,-0.8660254037844387,-0.4999999999999998,0,0)"><line x1="-234.32562836289713" y1="-662.176393840041" x2="-212.40436032960355" y2="-649.520143840041" stroke-width="2" stroke="black"></line><line x1="-212.40435989976237" y1="-649.520143840041" x2="-212.40435989976234" y2="-624.207643840041" stroke-width="2" stroke="black"></line><line x1="-212.40436032960352" y1="-624.207643840041" x2="-234.32562836289713" y2="-611.551393840041" stroke-width="2" stroke="black"></line><line x1="-234.32562879273829" y1="-611.551393840041" x2="-256.2468968260319" y2="-624.207643840041" stroke-width="2" stroke="black"></line><line x1="-256.2468968260319" y1="-624.207643840041" x2="-256.2468968260319" y2="-649.520143840041" stroke-width="2" stroke="black"></line><line x1="-256.2468968260319" y1="-649.520143840041" x2="-234.32562879273829" y2="-662.176393840041" stroke-width="2" stroke="black"></line></g><g transform="matrix(-0.8660254037844387,0.49999999999999994,-0.49999999999999994,-0.8660254037844387,0,0)"><line x1="-521.3638938400409" y1="-456.29876510023735" x2="-502.3795188400409" y2="-445.33813108359055" stroke-width="2" stroke="black"></line><line x1="-502.3795188400409" y1="-445.33813086866996" x2="-502.3795188400409" y2="-423.4168628353764" stroke-width="2" stroke="black"></line><line x1="-502.3795188400409" y1="-423.4168624055352" x2="-521.3638938400409" y2="-412.4562283888884" stroke-width="2" stroke="black"></line><line x1="-521.3638938400409" y1="-412.4562283888884" x2="-540.3482688400409" y2="-423.4168624055352" stroke-width="2" stroke="black"></line><line x1="-540.3482688400409" y1="-423.4168628353764" x2="-540.3482688400409" y2="-445.33813086866996" stroke-width="2" stroke="black"></line><line x1="-540.3482688400409" y1="-445.33813108359055" x2="-521.3638938400409" y2="-456.29876510023735" stroke-width="2" stroke="black"></line></g><g transform="matrix(-1,1.2246467991473532e-16,-1.2246467991473532e-16,-1,0,0)"><line x1="-668.7031249999999" y1="-134.48437500000009" x2="-652.2621739750297" y2="-124.9921875000001" stroke-width="2" stroke="black"></line><line x1="-652.2621746063231" y1="-124.99218750000009" x2="-652.2621746063231" y2="-106.00781250000009" stroke-width="2" stroke="black"></line><line x1="-652.2621739750297" y1="-106.00781250000009" x2="-668.7031249999999" y2="-96.51562500000007" stroke-width="2" stroke="black"></line><line x1="-668.7031243687064" y1="-96.51562500000009" x2="-685.1440753936766" y2="-106.00781250000009" stroke-width="2" stroke="black"></line><line x1="-685.1440753936766" y1="-106.0078125000001" x2="-685.1440753936766" y2="-124.99218750000009" stroke-width="2" stroke="black"></line><line x1="-685.1440753936766" y1="-124.99218750000007" x2="-668.7031243687064" y2="-134.48437500000009" stroke-width="2" stroke="black"></line></g><g transform="matrix(-0.8660254037844386,-0.5000000000000001,0.5000000000000001,-0.8660254037844386,0,0)"><line x1="-636.8638938400409" y1="217.8846779692206" x2="-622.6256125900409" y2="226.1051534817057" stroke-width="2" stroke="black"></line><line x1="-622.6256125900409" y1="226.10515316605898" x2="-622.6256125900409" y2="242.54610419102917" stroke-width="2" stroke="black"></line><line x1="-622.6256125900409" y1="242.54610355973574" x2="-636.8638938400409" y2="250.76657907222088" stroke-width="2" stroke="black"></line><line x1="-636.8638938400409" y1="250.76657907222085" x2="-651.1021750900409" y2="242.54610355973574" stroke-width="2" stroke="black"></line><line x1="-651.1021750900409" y1="242.54610419102917" x2="-651.1021750900409" y2="226.10515316605898" stroke-width="2" stroke="black"></line><line x1="-651.1021750900409" y1="226.10515348170574" x2="-636.8638938400409" y2="217.8846779692206" stroke-width="2" stroke="black"></line></g><g transform="matrix(-0.5000000000000004,-0.8660254037844385,0.8660254037844385,-0.5000000000000004,0,0)"><line x1="-434.37749663710287" y1="507.12561259004076" x2="-422.0467833683752" y2="514.2447532150408" stroke-width="2" stroke="black"></line><line x1="-422.04678336500814" y1="514.2447532150408" x2="-422.04678336500814" y2="528.4830344650408" stroke-width="2" stroke="black"></line><line x1="-422.0467833683752" y1="528.4830344650408" x2="-434.37749663710287" y2="535.6021750900408" stroke-width="2" stroke="black"></line><line x1="-434.37749664046993" y1="535.6021750900408" x2="-446.7082099091976" y2="528.4830344650408" stroke-width="2" stroke="black"></line><line x1="-446.7082099091976" y1="528.4830344650408" x2="-446.7082099091976" y2="514.2447532150408" stroke-width="2" stroke="black"></line><line x1="-446.7082099091976" y1="514.2447532150408" x2="-434.37749664046993" y2="507.12561259004076" stroke-width="2" stroke="black"></line></g></g></svg>